# xmcd CD database file
#
# Track frame offsets:
#	182
#	29662
#	40717
#	61105
#	79917
#	106065
#	126995
#	146957
#	174050
#	187045
#
# Disc length: 2686 seconds
#
# Revision: 7
# Processed by: cddbd v1.5.2PL0 Copyright (c) Steve Scherf et al.
# Submitted via: CDex 2.06
#
DISCID=850a7c0a
DTITLE=Rickie Lee Jones - Traffic From Paradise
DYEAR=1993
DGENRE=Pop
TTITLE0=Pink Flamingos
TTITLE1=Altar Boy
TTITLE2=Stewart's Coat
TTITLE3=Beat Angels
TTITLE4=Tigers
TTITLE5=Rebel Rebel
TTITLE6=Jolie Jolie
TTITLE7=Running From Mercy
TTITLE8=A Stranger's Car
TTITLE9=The Albatross
EXTD=YEAR: 1993
EXTT0=
EXTT1=
EXTT2=
EXTT3=
EXTT4=
EXTT5=
EXTT6=
EXTT7=
EXTT8=
EXTT9=
PLAYORDER=
